<?xml version="1.0" encoding="UTF-8" standalone="no"?>
<svg
   viewBox="0 0 106.444 31.924977"
   width="106.444"
   height="31.924976"
   version="1.1"
   id="svg3"
   sodipodi:docname="St. Judes.svg"
   inkscape:version="1.4 (86a8ad7, 2024-10-11)"
   xmlns:inkscape="http://www.inkscape.org/namespaces/inkscape"
   xmlns:sodipodi="http://sodipodi.sourceforge.net/DTD/sodipodi-0.dtd"
   xmlns="http://www.w3.org/2000/svg"
   xmlns:svg="http://www.w3.org/2000/svg">
  <defs
     id="defs3" />
  <sodipodi:namedview
     id="namedview3"
     pagecolor="#ffffff"
     bordercolor="#000000"
     borderopacity="0.25"
     inkscape:showpageshadow="2"
     inkscape:pageopacity="0.0"
     inkscape:pagecheckerboard="0"
     inkscape:deskcolor="#d1d1d1"
     inkscape:zoom="16.118182"
     inkscape:cx="55.186125"
     inkscape:cy="15.789622"
     inkscape:window-width="1920"
     inkscape:window-height="991"
     inkscape:window-x="-9"
     inkscape:window-y="-9"
     inkscape:window-maximized="1"
     inkscape:current-layer="g3" />
  <g
     fill-rule="nonzero"
     fill="none"
     id="g3"
     transform="translate(0.152,-0.13102434)">
    <path
       d="m 31.329,26.038 -0.011,-0.015 c 0.679,-0.979 1.613,-2.234 1.948,-2.467 l 0.067,-0.03 c 1.01,-0.059 1.576,-0.41 1.726,-0.518 0.191,-0.136 0.749,-0.678 0.842,-0.777 0.096,-0.102 0.385,-0.757 0.503,-1.033 l -0.013,0.023 0.047,-0.109 0.008,-0.029 0.077,-0.238 a 0.2,0.2 0 0 0 -0.105,-0.17 0.277,0.277 0 0 0 -0.162,-0.017 l 0.005,-0.015 a 0.676,0.676 0 0 0 0.075,-0.244 V 20.382 A 0.23,0.23 0 0 0 36.218,20.208 C 36.151,20.171 36.062,20.173 35.97,20.194 a 0.385,0.385 0 0 0 -0.109,-0.102 c -0.019,-0.014 -0.13,-0.053 -0.334,0.071 a 0.898,0.898 0 0 0 -0.224,0.213 l 0.015,-0.126 a 0.217,0.217 0 0 0 -0.137,-0.149 c -0.097,-0.036 -0.22,-0.013 -0.338,0.065 -0.129,0.087 -0.303,0.36 -0.352,0.441 a 1.488,1.488 0 0 0 -0.317,0.361 c -0.33,0.106 -0.535,0.1 -0.621,0.067 0.201,-0.116 0.359,-0.226 0.446,-0.327 0.195,-0.236 0.306,-0.483 0.306,-0.685 a 0.555,0.555 0 0 0 -0.009,-0.1 0.283,0.283 0 0 0 -0.142,-0.201 c -0.198,-0.099 -0.435,0.101 -0.48,0.143 -0.003,0.005 -0.069,0.074 -0.105,0.113 a 0.822,0.822 0 0 0 -0.335,0.156 c -0.073,0.064 -0.16,0.093 -0.261,0.127 -0.122,0.04 -0.259,0.089 -0.394,0.202 l -0.011,0.009 0.01,-0.007 -0.309,0.207 c -0.312,0.163 -0.478,0.328 -0.655,0.502 -0.35,0.348 -0.79,0.78 -2.757,1.432 -0.017,-0.721 -0.461,-2.656 -0.551,-3.396 -0.182,-1.308 -1.699,-3.108 -2.789,-4.247 1.029,0.598 1.604,0.682 2.17,-0.089 0.149,-0.234 0.385,0.018 0.599,-0.023 0.311,-0.162 0.271,-0.249 0.271,-0.475 0.091,-0.241 0.336,-0.122 0.517,-0.151 0.458,-0.076 0.186,-0.556 0.365,-0.798 2.015,-0.12 -0.257,-1.971 1.099,-2.738 0.883,-0.412 1.216,-0.96 1.609,-1.491 C 32.472,8.761 32.539,9.103 32.782,8.743 33.221,7.165 32.463,5.219 31.487,3.879 26.488,-2.546 20.78,0.416 19.116,4.396 c -0.688,1.012 -0.475,2.482 -0.514,3.692 -0.13,0.42 -0.382,0.409 -0.745,0.161 -0.082,0.833 0.569,0.999 0.858,1.054 0.031,0.107 0.221,0.269 0.301,0.38 -0.261,0.075 -0.805,-0.075 -0.983,-0.171 -0.007,0.189 0.016,0.344 0.168,0.517 0.12,0.594 0.422,0.805 0.852,0.98 0.802,0.325 0.426,1.424 0.332,1.876 -0.029,0.099 -0.06,0.199 -0.087,0.294 -0.74,0.19 -1.235,0.861 -1.432,1.557 -0.09,1.687 -0.961,3.088 -0.945,4.834 0,0 -0.016,0.256 0,0.36 0.432,1.889 -0.121,4.365 -0.029,6.312 -6.303,0.94 -12.1,2.964 -17.044,5.814 7.332,-2.949 15.887,-4.647 25.029,-4.647 9.143,0 17.697,1.698 25.028,4.647 -5.342,-3.079 -11.68,-5.196 -18.576,-6.018 m -5.482,-5.867 a 0.169,0.169 0 0 1 -0.139,0.109 c -1.775,0.057 -3.295,0.772 -4.516,2.125 0,0 -0.137,0.133 -0.482,-0.138 -0.265,-0.206 -0.167,-0.423 -0.167,-0.423 0.47,-1.184 1.683,-1.965 3.6,-2.319 l 0.056,-0.008 c 0.392,-0.054 1.306,-0.18 1.617,0.433 0,0 0.066,0.118 0.031,0.221"
       fill="#d11947"
       id="path1" />
    <path
       d="m 49.031,22.46 -0.008,-0.207 c -0.387,-0.048 -0.669,-0.199 -1.049,-0.668 -0.451,-0.542 -0.847,-1.281 -1.153,-1.863 0.708836,-0.192911 1.203102,-0.833415 1.21,-1.568 0,-0.892 -0.717,-1.608 -1.936,-1.608 -0.483,0 -0.902,0.049 -1.66,0.049 -0.282,0.007 -0.613,0 -0.919,-0.008 v 0.278 l 0.459,0.047 c 0.129,0.017 0.21,0.081 0.21,0.215 v 4.768 c 0,0.191 -0.081,0.238 -0.21,0.254 l -0.459,0.048 v 0.279 h 2.346 V 22.197 L 45.435,22.142 C 45.33,22.126 45.274,22.078 45.274,21.967 v -2.15 c 0.176,0 0.363,0.009 0.483,0.017 0.379,0.676 0.766,1.449 1.234,2.061 0.395,0.525 0.854,0.636 1.387,0.636 0.202,0 0.451,-0.039 0.653,-0.071 z m -3.298,-3.04 c -0.169,0 -0.314,-0.016 -0.459,-0.024 v -2.388 c 0.201,-0.024 0.41,-0.024 0.588,-0.024 0.67,0 1.097,0.43 1.097,1.218 0,0.844 -0.477,1.226 -1.226,1.218 z m 6.515,2.355 -0.186,-0.223 c -0.33,0.192 -0.653,0.343 -1.015,0.343 -0.831,0 -1.307,-0.772 -1.355,-1.664 h 2.483 v -0.246 c 0,-0.963 -0.588,-1.679 -1.547,-1.679 -0.872,0 -1.815,0.843 -1.815,2.156 0,1.433 0.984,2.102 1.879,2.102 0.573,0 1.226,-0.494 1.556,-0.789 z m -1.75,-3.055 c 0.315,0 0.751,0.223 0.847,1.074 L 49.7,19.85 c 0.064,-0.724 0.403,-1.13 0.798,-1.13 z m 5.071,2.522 c 0,-0.549 -0.298,-0.93 -1.032,-1.17 L 54.03,19.906 c -0.549,-0.184 -0.693,-0.406 -0.693,-0.685 0,-0.318 0.241,-0.534 0.668,-0.534 0.573,0 0.807,0.351 1,0.86 h 0.298 l -0.008,-0.986 c -0.411,-0.176 -0.685,-0.255 -1.096,-0.255 -0.895,0 -1.556,0.556 -1.556,1.297 0,0.589 0.338,0.94 1.104,1.186 l 0.443,0.144 c 0.501,0.158 0.613,0.405 0.613,0.699 0,0.335 -0.257,0.621 -0.765,0.621 -0.573,0 -0.815,-0.342 -1.024,-1.019 h -0.347 l 0.056,1.099 c 0.201,0.111 0.678,0.27 1.178,0.27 0.887,0 1.668,-0.485 1.668,-1.361 z m 3.838,0.533 -0.185,-0.223 c -0.331,0.192 -0.654,0.343 -1.016,0.343 -0.831,0 -1.306,-0.772 -1.354,-1.664 h 2.483 v -0.246 c 0,-0.963 -0.588,-1.679 -1.548,-1.679 -0.871,0 -1.815,0.843 -1.815,2.156 0,1.433 0.984,2.102 1.88,2.102 0.571,0 1.225,-0.494 1.555,-0.789 z M 57.658,18.72 c 0.314,0 0.749,0.223 0.847,1.074 L 56.86,19.85 c 0.064,-0.724 0.403,-1.13 0.798,-1.13 z m 4.442,3.876 1.322,-0.215 -0.016,-0.232 -0.192,-0.023 c -0.259,-0.032 -0.363,-0.167 -0.363,-0.438 l -0.01,-2.237 c 0,-0.636 -0.402,-1.169 -1.265,-1.169 -0.759,0 -1.709,0.604 -1.709,1.218 0,0.151 0.04,0.31 0.129,0.421 l 0.798,-0.318 c -0.0834,-0.131955 -0.133191,-0.282343 -0.145,-0.438 -0.008,-0.239 0.161,-0.43 0.533,-0.43 0.394,0 0.693,0.327 0.693,0.701 l 0.008,0.708 -1.202,0.438 c -0.596,0.215 -0.944,0.557 -0.944,1.09 0,0.518 0.339,0.938 1.04,0.938 0.347,0 0.775,-0.324 1.146,-0.595 0.016,0.198 0.073,0.421 0.177,0.581 z m -1.443,-1.202 c 0,-0.279 0.08,-0.517 0.475,-0.645 l 0.751,-0.239 0.008,1.21 c -0.283,0.16 -0.493,0.263 -0.669,0.263 -0.347,0 -0.565,-0.247 -0.565,-0.589 z m 5.072,0.819 -0.371,-0.047 C 65.244,22.149 65.164,22.118 65.164,21.959 V 19.77 c 0.17,-0.334 0.436,-0.669 0.799,-0.708 0.249,-0.032 0.483,0.071 0.684,0.198 l 0.234,-0.811 c -0.207038,-0.156802 -0.467491,-0.225778 -0.725,-0.192 -0.444,0.049 -0.734,0.478 -1.016,1.035 0,-0.318 -0.016,-0.748 -0.065,-0.97 l -1.483,0.302 0.016,0.232 0.266,0.023 c 0.218,0.015 0.306,0.167 0.306,0.438 v 2.642 c 0,0.159 -0.073,0.19 -0.193,0.207 l -0.339,0.047 v 0.263 h 2.081 z m 2.064,-2.093 c 0,-0.947 0.468,-1.361 1,-1.361 0.426,0 0.709,0.167 1.007,0.772 h 0.283 v -0.915 c -0.34578,-0.213789 -0.74663,-0.321563 -1.153,-0.31 -0.991,0 -2.041,0.803 -2.041,2.196 0,1.409 1.008,2.053 1.871,2.053 0.565,0 1.137,-0.516 1.451,-0.795 L 70.05,21.561 c -0.282,0.191 -0.612,0.334 -0.951,0.334 -0.838,0 -1.306,-0.843 -1.306,-1.775 z m 4.636,2.093 -0.371,-0.047 c -0.121,-0.017 -0.194,-0.048 -0.194,-0.207 v -2.65 c 0.194,-0.168 0.484,-0.31 0.766,-0.31 0.476,0 0.717,0.278 0.717,0.676 v 2.284 c 0,0.159 -0.08,0.19 -0.193,0.207 l -0.33,0.047 v 0.263 h 2 v -0.263 l -0.299,-0.047 c -0.121,-0.017 -0.194,-0.048 -0.194,-0.207 v -2.476 c 0,-0.612 -0.403,-1.161 -1.201,-1.161 -0.452,0 -0.919,0.247 -1.266,0.628 v -1.87 c 0,-0.295 0.016,-0.565 0.024,-0.789 -0.314,0.065 -1.273,0.239 -1.604,0.296 l 0.016,0.222 0.306,0.024 c 0.178,0.016 0.274,0.16 0.274,0.439 v 4.687 c 0,0.159 -0.072,0.19 -0.193,0.207 l -0.298,0.047 v 0.263 h 2.04 z m 6.563,-0.016 -0.459,-0.048 c -0.13,-0.016 -0.211,-0.063 -0.211,-0.254 v -2.141 h 2.613 v 2.141 c 0,0.191 -0.08,0.238 -0.21,0.254 l -0.459,0.048 v 0.279 h 2.427 v -0.279 l -0.46,-0.048 c -0.129,-0.016 -0.21,-0.063 -0.21,-0.254 v -4.727 c 0,-0.192 0.081,-0.239 0.21,-0.256 l 0.46,-0.047 v -0.278 h -2.427 v 0.278 l 0.459,0.047 c 0.13,0.017 0.21,0.064 0.21,0.256 v 2.133 h -2.613 v -2.133 c 0,-0.192 0.081,-0.239 0.211,-0.256 l 0.459,-0.047 v -0.278 h -2.427 v 0.278 l 0.459,0.047 c 0.129,0.017 0.21,0.064 0.21,0.256 v 4.727 c 0,0.191 -0.081,0.238 -0.21,0.254 l -0.459,0.048 v 0.279 h 2.427 z m 3.918,-1.679 c 0,1.186 0.782,2.061 1.943,2.061 1.21,0 2.097,-1.035 2.097,-2.212 0,-1.178 -0.799,-2.061 -1.959,-2.061 -1.211,0 -2.081,1.043 -2.081,2.212 z m 3.048,-0.016 c 0,1.05 -0.404,1.656 -0.983,1.656 -0.621,0 -1.073,-0.685 -1.073,-1.775 0,-1.043 0.388,-1.655 0.983,-1.655 0.605,0 1.073,0.692 1.073,1.774 z m 4.379,0.74 c 0,-0.549 -0.298,-0.93 -1.033,-1.17 l -0.507,-0.166 c -0.549,-0.184 -0.694,-0.406 -0.694,-0.685 0,-0.318 0.241,-0.534 0.669,-0.534 0.572,0 0.806,0.351 0.999,0.86 h 0.299 l -0.009,-0.986 c -0.411,-0.176 -0.684,-0.255 -1.096,-0.255 -0.894,0 -1.555,0.556 -1.555,1.297 0,0.589 0.338,0.94 1.104,1.186 l 0.443,0.144 c 0.501,0.158 0.613,0.405 0.613,0.699 0,0.335 -0.258,0.621 -0.766,0.621 -0.573,0 -0.815,-0.342 -1.023,-1.019 h -0.347 l 0.056,1.099 c 0.201,0.111 0.677,0.27 1.178,0.27 0.886,0 1.669,-0.485 1.669,-1.361 z m 2.45,2.937 -0.411,-0.048 c -0.122,-0.016 -0.194,-0.047 -0.194,-0.207 v -1.488 c 0.202,0.088 0.411,0.136 0.645,0.136 1.081,0 2.145,-0.931 2.145,-2.268 0,-1.226 -0.725,-1.99 -1.645,-1.99 -0.443,0 -0.862,0.238 -1.177,0.548 -0.0073,-0.181047 -0.0263,-0.361428 -0.057,-0.54 l -1.483,0.302 0.016,0.232 0.226,0.023 c 0.242,0.024 0.347,0.167 0.347,0.438 v 4.607 c 0,0.16 -0.072,0.191 -0.195,0.207 l -0.338,0.048 v 0.263 h 2.121 z m 0.105,-5.22 c 0.669,0 1.112,0.596 1.112,1.527 0,1.122 -0.563,1.632 -1.128,1.632 -0.266,0 -0.492,-0.088 -0.694,-0.247 v -2.642 c 0.186,-0.151 0.444,-0.27 0.71,-0.27 z m 4.007,-1.926 c 0,-0.806666 -1.21,-0.806666 -1.21,0 0,0.806666 1.21,0.806666 1.21,0 z m 0.436,5.443 v -0.263 l -0.339,-0.047 c -0.121,-0.017 -0.194,-0.048 -0.194,-0.207 v -2.873 c 0,-0.287 0.007,-0.558 0.024,-0.78 -0.314,0.071 -1.273,0.255 -1.596,0.318 l 0.016,0.232 0.299,0.023 c 0.201,0.015 0.274,0.175 0.274,0.43 v 2.65 c 0,0.159 -0.073,0.19 -0.193,0.207 l -0.34,0.047 v 0.263 z m 2.733,-0.358 -0.089,-0.238 c -0.194,0.07 -0.37,0.111 -0.549,0.111 -0.258,0 -0.459,-0.104 -0.45,-0.637 v -2.419 h 1.008 V 18.481 H 98.98 v -1.067 l -0.992,0.446 v 0.621 h -0.573 v 0.454 h 0.573 v 2.546 c 0,0.534 0.25,1.059 1.008,1.059 0.25,0 0.531,-0.112 1.072,-0.422 z m 2.637,0.478 1.322,-0.215 -0.016,-0.232 -0.194,-0.023 c -0.258,-0.032 -0.362,-0.167 -0.362,-0.438 l -0.009,-2.237 c 0,-0.636 -0.402,-1.169 -1.266,-1.169 -0.758,0 -1.709,0.604 -1.709,1.218 0,0.151 0.04,0.31 0.128,0.421 l 0.799,-0.318 c -0.0838,-0.131759 -0.13364,-0.282254 -0.145,-0.438 -0.008,-0.239 0.161,-0.43 0.532,-0.43 0.395,0 0.694,0.327 0.694,0.701 l 0.008,0.708 -1.201,0.438 c -0.597,0.215 -0.945,0.557 -0.945,1.09 0,0.518 0.339,0.938 1.04,0.938 0.348,0 0.775,-0.324 1.146,-0.595 0.016,0.198 0.072,0.421 0.178,0.581 z m -1.445,-1.202 c 0,-0.279 0.081,-0.517 0.477,-0.645 l 0.75,-0.239 0.008,1.21 c -0.283,0.16 -0.492,0.263 -0.67,0.263 -0.346,0 -0.565,-0.247 -0.565,-0.589 z m 4.508,0.565 V 17.08 c 0,-0.295 0.016,-0.565 0.025,-0.789 -0.315,0.065 -1.275,0.239 -1.605,0.296 l 0.016,0.222 0.306,0.024 c 0.177,0.016 0.275,0.16 0.275,0.439 v 4.687 c 0,0.159 -0.073,0.19 -0.195,0.207 l -0.338,0.047 v 0.263 h 2.04 v -0.263 l -0.33,-0.047 c -0.122,-0.017 -0.194,-0.048 -0.194,-0.207 z M 47.741,12.307 c 0,-0.763 -0.298,-1.289 -1.451,-1.663 l -0.742,-0.238 c -0.686,-0.223 -0.911,-0.55 -0.911,-1.011 0,-0.557 0.411,-0.892 1.048,-0.892 0.637,0 1.064,0.271 1.322,1.138 H 47.33 V 8.408 C 46.845,8.185 46.386,8.049 45.814,8.049 c -1.113,0 -1.968,0.708 -1.968,1.776 0,0.772 0.355,1.304 1.46,1.654 l 0.653,0.208 c 0.717,0.231 0.943,0.565 0.943,1.067 0,0.517 -0.419,0.946 -1.193,0.946 -0.822,0 -1.201,-0.303 -1.459,-1.24 h -0.371 l 0.008,1.321 c 0.677,0.262 1.137,0.357 1.725,0.357 1.177,0 2.129,-0.732 2.129,-1.831 z m 2.878,1.369 -0.089,-0.237 c -0.192,0.071 -0.371,0.11 -0.547,0.11 -0.258,0 -0.461,-0.104 -0.452,-0.637 v -2.418 h 1.008 V 10.039 H 49.531 V 8.973 l -0.992,0.445 v 0.621 h -0.572 v 0.455 h 0.572 v 2.546 c 0,0.533 0.25,1.059 1.008,1.059 0.25,0 0.532,-0.112 1.072,-0.423 z m 1.605,-0.15 c -5.38e-4,-0.31953 -0.261487,-0.577335 -0.581,-0.574 -0.79727,-0.0333 -0.79727,1.180299 0,1.147 0.319123,0.0033 0.579907,-0.253861 0.581,-0.573 z m 3.265,-4.8 c 0,-0.191 0.08,-0.238 0.217,-0.255 L 56.159,8.424 V 8.146 h -2.46 v 0.278 l 0.508,0.04 c 0.105,0.007 0.153,0.063 0.153,0.183 v 5.3 c 0,0.963 -0.403,1.417 -1.193,1.719 l 0.113,0.247 c 1.371,-0.199 2.209,-0.891 2.209,-2.3 z m 3.854,5.428 1.387,-0.215 -0.016,-0.23 -0.202,-0.025 c -0.257,-0.031 -0.363,-0.166 -0.363,-0.437 v -2.603 c 0,-0.287 0.008,-0.556 0.024,-0.78 l -1.595,0.319 0.015,0.231 0.299,0.024 c 0.201,0.016 0.273,0.174 0.273,0.429 v 2.38 c -0.201,0.159 -0.459,0.279 -0.701,0.279 -0.476,0 -0.718,-0.295 -0.718,-0.717 v -2.165 c 0,-0.287 0.008,-0.556 0.024,-0.78 l -1.595,0.319 0.016,0.231 0.297,0.024 c 0.202,0.016 0.274,0.174 0.274,0.429 v 2.229 c 0,0.549 0.412,1.082 1.17,1.082 0.419,0 0.919,-0.27 1.273,-0.613 0.01425,0.202443 0.06084,0.401297 0.138,0.589 z m 6.015,-0.215 -0.016,-0.23 -0.234,-0.025 C 64.85,13.66 64.745,13.518 64.745,13.247 V 8.638 c 0,-0.294 0.016,-0.565 0.024,-0.787 l -1.644,0.295 0.016,0.223 0.346,0.023 c 0.178,0.016 0.274,0.159 0.274,0.438 v 1.177 C 63.557667,9.917936 63.337982,9.8722962 63.116,9.873 c -1.08,0 -2.144,0.931 -2.144,2.268 0,1.225 0.725,1.99 1.645,1.99 0.443,0 0.87,-0.247 1.184,-0.558 0.016,0.199 0.065,0.43 0.138,0.581 z m -3.419,-1.982 c 0,-1.122 0.565,-1.631 1.129,-1.631 0.266,0 0.491,0.088 0.693,0.247 v 2.642 c -0.199415,0.167015 -0.449025,0.262423 -0.709,0.271 -0.669,0 -1.113,-0.597 -1.113,-1.529 z m 7.104,1.377 -0.186,-0.222 c -0.331,0.191 -0.653,0.341 -1.016,0.341 -0.831,0 -1.306,-0.771 -1.355,-1.663 h 2.484 v -0.246 c 0,-0.963 -0.589,-1.68 -1.548,-1.68 -0.871,0 -1.815,0.844 -1.815,2.157 0,1.432 0.984,2.102 1.879,2.102 0.573,0 1.227,-0.495 1.557,-0.789 z m -1.75,-3.056 c 0.314,0 0.75,0.223 0.847,1.074 l -1.645,0.057 c 0.064,-0.725 0.402,-1.131 0.798,-1.131 z m 8.804,3.39 0.016,-1.281 h -0.371 c -0.234,0.955 -0.532,1.297 -1.572,1.297 -1.209,0 -2.072,-1.011 -2.105,-2.602 -0.031,-1.576 0.815,-2.603 2.057,-2.603 0.886,0 1.306,0.367 1.564,1.226 h 0.371 L 76.033,8.44 c -0.509,-0.207 -1.025,-0.398 -1.79,-0.398 -2.015,0 -3.395,1.353 -3.395,3.12 0,1.727 1.274,2.985 3.274,2.985 0.765,0 1.241,-0.144 1.975,-0.479 z m 2.596,0.104 -0.37,-0.047 c -0.122,-0.016 -0.194,-0.049 -0.194,-0.207 v -2.651 c 0.194,-0.167 0.483,-0.31 0.766,-0.31 0.476,0 0.717,0.278 0.717,0.676 v 2.285 c 0,0.158 -0.08,0.191 -0.193,0.207 l -0.33,0.047 v 0.262 h 1.999 V 13.772 L 80.79,13.725 c -0.12,-0.016 -0.194,-0.049 -0.194,-0.207 v -2.476 c 0,-0.612 -0.403,-1.162 -1.201,-1.162 -0.452,0 -0.919,0.247 -1.266,0.629 V 8.638 c 0,-0.294 0.016,-0.565 0.024,-0.787 -0.533997,0.1037116 -1.069025,0.2020499 -1.605,0.295 l 0.016,0.223 0.307,0.023 c 0.177,0.016 0.274,0.159 0.274,0.438 v 4.688 c 0,0.158 -0.073,0.191 -0.193,0.207 l -0.298,0.047 v 0.262 h 2.039 z m 4.313,-5.181 c 0,-0.8053329 -1.208,-0.8053329 -1.208,0 0.04377,0.7603055 1.164231,0.7603055 1.208,0 z m 0.437,5.443 V 13.772 L 83.105,13.725 C 82.982,13.709 82.91,13.676 82.91,13.518 v -2.874 c 0,-0.287 0.009,-0.556 0.024,-0.78 -0.314,0.072 -1.274,0.255 -1.596,0.319 l 0.017,0.231 0.297,0.024 c 0.202,0.016 0.274,0.174 0.274,0.429 v 2.651 c 0,0.158 -0.072,0.191 -0.193,0.207 l -0.339,0.047 v 0.262 z m 1.772,-0.516 v -4.88 c 0,-0.294 0.017,-0.565 0.026,-0.787 -0.315,0.064 -1.275,0.239 -1.606,0.295 l 0.016,0.223 0.308,0.023 c 0.176,0.016 0.273,0.159 0.273,0.438 v 4.688 c 0,0.158 -0.072,0.191 -0.192,0.207 l -0.34,0.047 v 0.262 h 2.04 v -0.262 l -0.33,-0.047 c -0.121,-0.016 -0.195,-0.049 -0.195,-0.207 z m 5.242,0.421 -0.016,-0.23 -0.234,-0.025 C 89.95,13.66 89.844,13.518 89.844,13.247 V 8.638 c 0,-0.294 0.017,-0.565 0.025,-0.787 l -1.645,0.295 0.016,0.223 0.347,0.023 c 0.176,0.016 0.274,0.159 0.274,0.438 v 1.177 C 88.657314,9.917941 88.437304,9.8723038 88.215,9.873 c -1.081,0 -2.145,0.931 -2.145,2.268 0,1.225 0.727,1.99 1.645,1.99 0.444,0 0.872,-0.247 1.186,-0.558 0.017,0.199 0.064,0.43 0.137,0.581 z m -3.419,-1.982 c 0,-1.122 0.564,-1.631 1.13,-1.631 0.265,0 0.491,0.088 0.693,0.247 v 2.642 c -0.200186,0.167028 -0.450426,0.262407 -0.711,0.271 -0.669,0 -1.112,-0.597 -1.112,-1.529 z m 5.676,1.815 -0.37,-0.047 C 92.23,13.709 92.15,13.676 92.15,13.518 v -2.189 c 0.169,-0.335 0.436,-0.669 0.799,-0.708 0.249,-0.033 0.483,0.071 0.684,0.197 l 0.235,-0.811 c -0.207658,-0.15701 -0.469074,-0.2253306 -0.727,-0.19 -0.443,0.047 -0.733,0.477 -1.015,1.034 0,-0.318 -0.016,-0.748 -0.065,-0.971 l -1.483,0.303 0.016,0.231 0.266,0.024 c 0.218,0.016 0.306,0.167 0.306,0.437 v 2.643 c 0,0.158 -0.073,0.191 -0.193,0.207 l -0.339,0.047 v 0.262 h 2.08 z m 4.596,-0.438 -0.185,-0.222 c -0.33,0.191 -0.653,0.341 -1.016,0.341 -0.83,0 -1.307,-0.771 -1.355,-1.663 h 2.483 v -0.246 c 0,-0.963 -0.588,-1.68 -1.547,-1.68 -0.872,0 -1.814,0.844 -1.814,2.157 0,1.432 0.983,2.102 1.877,2.102 0.574,0 1.226,-0.495 1.557,-0.789 z m -1.75,-3.056 c 0.316,0 0.751,0.223 0.847,1.074 l -1.645,0.057 c 0.065,-0.725 0.404,-1.131 0.798,-1.131 z m 4.088,3.494 -0.331,-0.047 c -0.112,-0.016 -0.192,-0.049 -0.192,-0.207 v -2.651 c 0.192,-0.167 0.483,-0.31 0.765,-0.31 0.476,0 0.718,0.278 0.718,0.676 v 2.285 c 0,0.158 -0.08,0.191 -0.192,0.207 l -0.331,0.047 v 0.262 h 2.04 v -0.262 l -0.34,-0.047 c -0.121,-0.016 -0.194,-0.049 -0.194,-0.207 v -2.476 c 0,-0.612 -0.403,-1.162 -1.234,-1.162 -0.435,0 -0.909,0.263 -1.257,0.661 -0.0057,-0.221525 -0.02673,-0.442389 -0.063,-0.661 l -1.485,0.303 0.016,0.231 0.266,0.024 c 0.218,0.016 0.307,0.167 0.307,0.437 v 2.643 c 0,0.158 -0.072,0.191 -0.194,0.207 l -0.339,0.047 v 0.262 h 2.04 z m 2.968,-4.297 c 0,0.247 -0.186,0.469 -0.476,0.716 l 0.16,0.143 c 0.557,-0.406 0.993,-0.892 0.993,-1.52 0,-0.422 -0.29,-0.653 -0.597,-0.653 -0.548,0 -0.661,0.596 -0.589,0.812 0.306,0.103 0.509,0.231 0.509,0.502 z m 3.499,3.326 c 0,-0.549 -0.299,-0.931 -1.032,-1.17 l -0.508,-0.167 c -0.548,-0.183 -0.694,-0.405 -0.694,-0.684 0,-0.319 0.242,-0.534 0.67,-0.534 0.572,0 0.805,0.351 1,0.859 h 0.298 l -0.01,-0.986 c -0.411,-0.175 -0.684,-0.255 -1.095,-0.255 -0.895,0 -1.556,0.557 -1.556,1.298 0,0.589 0.339,0.939 1.105,1.185 l 0.443,0.144 c 0.5,0.158 0.612,0.406 0.612,0.7 0,0.335 -0.258,0.621 -0.764,0.621 -0.574,0 -0.816,-0.342 -1.025,-1.019 h -0.347 l 0.056,1.099 c 0.202,0.111 0.677,0.27 1.178,0.27 0.887,0 1.669,-0.486 1.669,-1.361 z"
       fill="#474c55"
       id="path2"
       sodipodi:nodetypes="cccccsccccssccccccscccsccccsscccsccsssscsccssccsscccssccsscccssccsccsssscsccsccccccsscccscccssccscccssccsccccccccccsscccccssccccssccssccscsssccccccssscsccccsscccccccsccsccccccssccccccsccsccccccsscccccsssssssssssccsscccssccsscccssccscssscccccsscccccsssccsssscccssccccssccccccscccccccccccsscccccccsscccscccssccscccssssccccssccccccssccsscccssccsscccssccscccccccccccsscccccsccccccssccssccccssccccscsssccccssscccccssccccsccsscccsscccsccsccsssscsccscccscscccssscccscsssccccccssscsccccsscccccccccccssccccssccccssccccssccccccscccssccccsccsscccsscccsccsccccccccccsscccccccsccsssscsccsccscsssccccccssscccccsscccccsccsscssccsscccssccsscccss" />
  </g>
</svg>
