<svg xmlns="http://www.w3.org/2000/svg" width="245" height="50.69" viewBox="0 0 245 50.69">
 <g transform="matrix(.87329 0 0 .87329 .3189 .6822)">
  <path d="m0.40625 0.19727v11.006h3.3027v20.09l6.3418 5.5449h6.4199v8.7754h-3.2988v11.002h20.398v-11.002h-3.0781v-2.0254h11.061v2.0254h-3.0742v11.002h20.398v-11.002h-3.3027v-15.318h3.3027v-11.01h-15.844v-8.082h3.2988v-11.006h-20.398v11.006h3.0781v8.082h-11.285v-8.082h3.0781v-11.006zm120.14 25.953c-2.34 0-4.4704 0.38969-6.4004 1.1797-1.92 0.78-3.5694 1.8602-4.9394 3.2402-1.37 1.37-2.4316 2.9991-3.1816 4.8691s-1.1289 3.8903-1.1289 6.0703c0 2.18 0.37891 4.2003 1.1289 6.0703s1.8116 3.5009 3.1816 4.8809c1.36 1.38 3.0094 2.46 4.9394 3.25 1.93 0.79 4.0604 1.1797 6.4004 1.1797s4.4687-0.39969 6.3887-1.1797c1.92-0.78 3.5599-1.87 4.9199-3.25 1.36-1.38 2.4199-3.0109 3.1699-4.8809 0.74-1.87 1.1211-3.9003 1.1211-6.0703 0-2.16-0.37109-4.1788-1.1211-6.0488-0.75-1.87-1.8099-3.4911-3.1699-4.8711-1.36-1.37-2.9999-2.46-4.9199-3.25-1.92-0.79-4.0487-1.1895-6.3887-1.1895zm112.99 0c-2.34 0-4.4684 0.38969-6.3984 1.1797-1.92 0.78-3.5714 1.8602-4.9414 3.2402-1.37 1.37-2.4297 2.9991-3.1797 4.8691s-1.1289 3.8903-1.1289 6.0703c1e-5 2.18 0.37891 4.2003 1.1289 6.0703s1.8197 3.5009 3.1797 4.8809c1.36 1.38 3.0114 2.46 4.9414 3.25 1.93 0.79 4.0584 1.1797 6.3984 1.1797s4.4706-0.39969 6.3906-1.1797c1.93-0.78 3.5697-1.87 4.9297-3.25 1.36-1.38 2.4199-3.0109 3.1699-4.8809s1.1309-3.9003 1.1309-6.0703c0-2.16-0.38086-4.1788-1.1309-6.0488-0.75-1.87-1.8099-3.4911-3.1699-4.8711-1.37-1.37-3.0097-2.46-4.9297-3.25s-4.0506-1.1895-6.3906-1.1895zm-52.729 0.01953c-1.65 0-3.1204 0.25-4.4004 0.75-1.28 0.5-2.3602 1.1698-3.2402 2.0098-0.88 0.84-1.55 1.8011-2 2.8711s-0.67969 2.1688-0.67969 3.2988c0 1.4 0.19008 2.581 0.58008 3.541s0.88953 1.7584 1.5195 2.3984c0.63 0.64 1.3406 1.1608 2.1406 1.5508 0.8 0.39 1.619 0.72023 2.459 0.99023s1.6609 0.51047 2.4609 0.73047 1.5087 0.46977 2.1387 0.75976c0.63 0.28 1.1315 0.64984 1.5215 1.0898 0.39 0.44 0.58007 1.009 0.58007 1.709 1e-5 1.21-0.35078 2.0904-1.0508 2.6504-0.7 0.56-1.6792 0.83984-2.9492 0.83984-0.93999 0-1.7514-0.12867-2.4414-0.38867s-1.3001-0.55109-1.8301-0.87109c-0.53-0.32-0.99992-0.60914-1.4199-0.86914-0.42-0.26-0.84-0.39062-1.25-0.39062-0.32 0-0.60867 0.08047-0.88867 0.23047-0.28 0.15-0.49063 0.34961-0.64063 0.59961l-2.0605 3.2598c0.59999 0.59 1.2898 1.1294 2.0898 1.6094 0.8 0.48 1.6506 0.9 2.5606 1.25 0.90999 0.35 1.8503 0.62055 2.8203 0.81055 0.97 0.19 1.9194 0.29102 2.8594 0.29102 1.7 0 3.2303-0.25148 4.5703-0.77148 1.35-0.52 2.4706-1.2289 3.3906-2.1289s1.6196-1.9599 2.0996-3.1699c0.48-1.21 0.7207-2.5104 0.7207-3.9004 0-1.25-0.19008-2.319-0.58008-3.209-0.38999-0.89-0.89148-1.6417-1.5215-2.2617-0.63-0.62-1.3484-1.1293-2.1484-1.5293-0.81-0.4-1.6307-0.73906-2.4707-1.0391-0.84-0.29-1.6707-0.56078-2.4707-0.80078-0.81-0.25-1.5184-0.51078-2.1484-0.80078s-1.1315-0.6293-1.5215-1.0293c-0.39-0.4-0.58008-0.89977-0.58008-1.5098 0-0.95 0.32094-1.6998 0.96093-2.2598 0.64-0.56 1.6099-0.83984 2.9199-0.83984 0.75 0 1.4295 0.09883 2.0195 0.29883 0.59 0.2 1.1201 0.41992 1.5801 0.66992s0.88023 0.46992 1.2402 0.66992 0.69953 0.30078 1.0195 0.30078c0.36 0 0.65086-0.08 0.88086-0.25 0.22871-0.1591 0.43766-0.40906 0.64649-0.73633l1.7226-3.2246c-0.54-0.49-1.1501-0.94008-1.8301-1.3301-0.68-0.39-1.4092-0.72976-2.1992-1.0098-0.78999-0.28-1.6202-0.49867-2.4902-0.63867-0.87-0.15-1.7694-0.2207-2.6894-0.2207zm-106.59 0.31055v30.08h7.0195v-12.721h12.221v12.721h7.0195v-30.08h-7.0195v12.57h-12.221v-12.57zm65.889 0v17.82c0 1.85 0.30062 3.5401 0.89062 5.0801 0.59 1.54 1.4406 2.8685 2.5606 3.9785s2.4703 1.9816 4.0703 2.6016c1.6 0.62 3.4082 0.92969 5.4082 0.92969s3.7906-0.30969 5.3906-0.92969c1.6-0.62 2.9503-1.4816 4.0703-2.6016 1.11-1.11 1.9703-2.4385 2.5703-3.9785 0.6-1.54 0.90039-3.2401 0.90039-5.0801v-17.82h-6.9805v17.82c0 1.06-0.13039 2.0098-0.40039 2.8398-0.27 0.84-0.65992 1.5391-1.1699 2.1191-0.51 0.58-1.1291 1.0201-1.8691 1.3301-0.74 0.3-1.5717 0.46094-2.5117 0.46094s-1.7698-0.15094-2.5098-0.46094c-0.74-0.31-1.3591-0.74984-1.8691-1.3398s-0.89993-1.3009-1.1699-2.1309c-0.27-0.83-0.40039-1.7798-0.40039-2.8398v-17.799zm52.771 0v5.5293h8.4688v24.551h6.9805v-24.551h8.459v-5.5293zm60.68 0v30.08h6.1504v-16.121c0-0.44-0.011-0.91016-0.041-1.4102-0.02-0.51-0.0596-1.0191-0.0996-1.5391l14.18 17.92c0.34 0.44 0.70031 0.75016 1.0703 0.91016 0.37 0.17 0.81938 0.25 1.3594 0.25h3.6309v-30.08h-6.1504v15.92c0 0.48 0.0191 0.99906 0.0391 1.5391 0.02 0.54 0.0611 1.1016 0.12109 1.6816l-14.291-18.061c-0.2-0.24-0.36953-0.42055-0.51953-0.56055-0.15-0.14-0.30071-0.24031-0.47071-0.32031s-0.34859-0.13016-0.55859-0.16016l0.01953-0.009766c-0.2-0.03-0.45977-0.03906-0.75977-0.03906zm-133.01 5.4297c1.33 0 2.5184 0.22016 3.5684 0.66016 1.04 0.44 1.9304 1.0704 2.6504 1.9004 0.72 0.82 1.2702 1.8295 1.6602 3.0195 0.39 1.19 0.58008 2.5295 0.58008 4.0195 0 1.5-0.20008 2.851-0.58008 4.041s-0.94016 2.1895-1.6602 3.0195c-0.72 0.83-1.6004 1.4606-2.6504 1.8906-1.04 0.43-2.2184 0.64844-3.5684 0.64844s-2.5516-0.21844-3.6016-0.64844c-1.05-0.43-1.9402-1.0606-2.6602-1.8906-0.72-0.82-1.2682-1.8295-1.6582-3.0195s-0.58008-2.551-0.58008-4.041c0-1.49 0.20008-2.8295 0.58008-4.0195 0.38-1.19 0.9382-2.1895 1.6582-3.0195s1.6102-1.4604 2.6602-1.9004c1.05-0.44 2.2716-0.66016 3.6016-0.66016zm113.01 0c1.33 0 2.5203 0.22016 3.5703 0.66016 1.04 0.44 1.9284 1.0704 2.6484 1.9004 0.72 0.82 1.2702 1.8295 1.6602 3.0195 0.39 1.19 0.58008 2.5295 0.58008 4.0195 0 1.5-0.20008 2.851-0.58008 4.041s-0.94015 2.1895-1.6602 3.0195c-0.72 0.83-1.6084 1.4606-2.6484 1.8906-1.04 0.43-2.2203 0.64844-3.5703 0.64844s-2.5496-0.21844-3.5996-0.64844c-1.05-0.43-1.9402-1.0606-2.6602-1.8906-0.72-0.82-1.2702-1.8295-1.6602-3.0195-0.38999-1.19-0.58007-2.551-0.58007-4.041 0-1.49 0.20008-2.8295 0.58007-4.0195 0.38-1.19 0.94016-2.1895 1.6602-3.0195s1.6102-1.4604 2.6602-1.9004c1.05-0.44 2.2696-0.66016 3.5996-0.66016z" fill="#c8102e"/>
  <path d="m1.9473 1.7617v7.8789h3.3047v20.936l5.373 4.6953h7.3867v11.91h-3.2988v7.8672h17.312v-7.8672h-3.0781v-5.1582h14.146v5.1582h-3.0742v7.8672h17.312v-7.8672h-3.3027v-18.453h3.3027v-7.875h-15.844v-11.213h3.3008v-7.8789h-17.312v7.8789h3.0762v11.213h-14.367v-11.213h3.0742v-7.8789zm1.4688 1.4863h14.379v4.9004h-3.0781v20.574h3.3008v5.0566h-6.8477l-4.4512-3.8848v-21.746h-3.3027zm25.527 0h14.379v4.9004h-3.2988v21.746l-4.3145 3.8848h-6.7656v-5.0566h3.0781v-20.574h-3.0781zm-12.762 19.09h14.377v4.9004h-3.0781v8.0273h17.082v-8.0273h-3.0742v-4.9004h14.377v4.9004h-3.2988v21.428h3.2988v4.8945h-14.377v-4.8945h3.0742v-8.1367h-17.082v8.1367h3.0781v4.8945h-14.377v-4.8945h3.3008v-21.428h-3.3008zm26.816 7.0059v4.3398h-4.8184z" fill="#fff" stroke-width=".29686"/>
  <path d="m254.15-0.0097656c-1.36 0-2.6007 0.23922-3.7207 0.69922-1.12 0.47-2.0789 1.1209-2.8789 1.9609-0.8 0.84-1.4213 1.84-1.8613 3-0.44 1.16-0.66015 2.4303-0.66015 3.8203 0 1.39 0.22015 2.6584 0.66015 3.8184 0.44 1.16 1.0613 2.1602 1.8613 2.9902s1.7589 1.4814 2.8789 1.9414c1.12 0.46 2.3607 0.68945 3.7207 0.68945s2.6105-0.22945 3.7305-0.68945c1.13-0.46 2.0887-1.1014 2.8887-1.9414s1.4213-1.8302 1.8613-2.9902c0.44-1.16 0.6582-2.4284 0.6582-3.8184 0-1.39-0.2182-2.6603-0.6582-3.8203-0.44-1.16-1.0613-2.16-1.8613-3-0.8-0.84-1.7687-1.4909-2.8887-1.9609-1.13-0.47-2.3705-0.69922-3.7305-0.69922zm-69.141 0.0097656c-0.92 0-1.7392 0.14969-2.4492 0.42969-0.71 0.29-1.311 0.67063-1.791 1.1406-0.48 0.48-0.84961 1.0189-1.0996 1.6289-0.25 0.61-0.38086 1.2504-0.38086 1.9004 0 0.82 0.13086 1.5105 0.38086 2.0605 0.25 0.56 0.59 1.0206 1 1.3906 0.41 0.37 0.88016 0.66844 1.4102 0.89844 0.53 0.23 1.0709 0.43133 1.6309 0.61133 0.56 0.18 1.0989 0.34953 1.6289 0.51953s1.0002 0.36938 1.4102 0.60938 0.75 0.54039 1 0.90039c0.25 0.36 0.38086 0.82086 0.38086 1.3809 0 0.51-0.0917 0.96891-0.26172 1.3789-0.17 0.41-0.41828 0.76055-0.73828 1.0605-0.32 0.3-0.72164 0.52945-1.1816 0.68945-0.47 0.16-0.99985 0.24024-1.5898 0.24024-0.71 0-1.3086-0.09906-1.8086-0.28906-0.5-0.19-0.92148-0.41062-1.2715-0.64062s-0.63914-0.45062-0.86914-0.64062-0.4411-0.28906-0.6211-0.28906c-0.12 0-0.22812 0.03961-0.32812 0.09961-0.1 0.07-0.18 0.15024-0.25 0.24023l-0.72071 1.1895c0.7 0.74 1.5493 1.3298 2.5293 1.7598 0.98 0.43 2.0695 0.65039 3.2695 0.65039 0.98 0 1.8609-0.14922 2.6309-0.44922s1.4192-0.71024 1.9492-1.2402c0.53-0.52 0.94094-1.1396 1.2109-1.8496 0.27-0.71 0.41015-1.4712 0.41015-2.2812 0-0.77-0.13086-1.4095-0.38085-1.9395-0.26-0.53-0.58977-0.97008-1.0098-1.3301-0.42-0.36-0.88992-0.66039-1.4199-0.90039s-1.0689-0.45063-1.6289-0.64062-1.1009-0.36883-1.6309-0.54883c-0.53-0.18-0.99992-0.39086-1.4199-0.63086s-0.75977-0.52914-1.0098-0.86914c-0.25-0.33-0.38085-0.7593-0.38085-1.2793-1e-5 -0.4 0.0707-0.78086 0.2207-1.1309 0.14-0.35 0.36039-0.65016 0.65039-0.91016 0.29-0.25 0.65008-0.45938 1.0801-0.60938 0.44-0.15 0.93023-0.23047 1.4902-0.23047 0.6 0 1.0995 0.070703 1.5195 0.2207 0.42 0.15 0.77032 0.30828 1.0703 0.48828 0.3 0.17 0.55024 0.33047 0.74024 0.48047 0.19 0.15 0.35977 0.2207 0.50976 0.2207 0.14 0 0.24985-0.039609 0.33985-0.099609s0.17-0.16102 0.25-0.29102h-0.0195l0.60937-1.1895c-0.63-0.62-1.3805-1.0899-2.2305-1.4199-0.85003-0.33-1.8001-0.49023-2.8301-0.49023zm-110.79 0.21094v11.25c0 1.07 0.16977 2.0588 0.50977 2.9688 0.34 0.91 0.82875 1.7011 1.4688 2.3711 0.63 0.67 1.4103 1.1884 2.3203 1.5684 0.91 0.38 1.9403 0.57031 3.0703 0.57031s2.1603-0.19031 3.0703-0.57031c0.92-0.38 1.6903-0.89836 2.3203-1.5684 0.63-0.67 1.119-1.4611 1.459-2.3711 0.34-0.91 0.50977-1.8988 0.50977-2.9688v-11.25h-2.4883v11.229c-1e-6 0.77-0.11008 1.4809-0.33008 2.1309-0.21 0.65-0.53117 1.2099-0.95117 1.6699-0.42 0.47-0.9293 0.82984-1.5293 1.0898-0.6 0.26-1.2808 0.39062-2.0508 0.39062h-0.0098c-0.77 0-1.4505-0.13062-2.0605-0.39062-0.61-0.26-1.1191-0.61984-1.5391-1.0898-0.41-0.47-0.73117-1.0199-0.95117-1.6699-0.22-0.64-0.32812-1.3609-0.32812-2.1309v-11.229zm20.719 0v18.5h2.2012v-13.191c0-0.17-0.0098-0.36031-0.0098-0.57031-0.01-0.2-0.02102-0.41891-0.04102-0.62891l10.711 13.939c0.12 0.17 0.24867 0.27961 0.38867 0.34961s0.3 0.10156 0.5 0.10156h1.2715v-18.5h-2.2012v13.109c0 0.19 0.01 0.39938 0.01 0.60938 0.01 0.21 0.0208 0.43039 0.0508 0.65039l-10.721-13.949c-0.14-0.17-0.25914-0.2818-0.36914-0.3418-0.11-0.05-0.28-0.078125-0.5-0.078125zm21.67 0v18.5h2.5098v-18.5zm7 0 7.5312 18.51h2.2598l7.5391-18.51h-2.0098c-0.21 0-0.38907 0.059453-0.53907 0.18945-0.14999 0.13-0.25054 0.26016-0.31054 0.41016l-5.1992 13.059c-0.12 0.3-0.23031 0.62094-0.32031 0.96094s-0.17 0.70031-0.25 1.0703c-0.09-0.37-0.19102-0.73031-0.29102-1.0703-0.1-0.35-0.21008-0.67094-0.33008-0.96094l-5.2285-13.059c-0.07-0.18-0.17055-0.31969-0.31055-0.42969-0.14-0.11-0.32102-0.16992-0.54101-0.16992zm21.391 0v18.51h11.4v-2.041h-8.8906v-6.3203h7.1894v-1.959h-7.1894v-6.1504h8.8906v-2.0391zm16.939 0v18.5h2.4902v-7.7109h1.9004c0.34 0 0.59953 0.04086 0.76953 0.13086 0.17 0.09 0.33047 0.23922 0.48047 0.44922l4.8008 6.6094c0.22 0.35 0.54977 0.53125 1.0098 0.53125h2.2188l-5.3984-7.3516c-0.25-0.35-0.52008-0.60906-0.83008-0.78906 0.72-0.16 1.3599-0.4007 1.9199-0.7207 0.56-0.32 1.0397-0.71016 1.4297-1.1602 0.39-0.45 0.69039-0.9593 0.90039-1.5293 0.21-0.56 0.30859-1.1801 0.30859-1.8301 0-0.79-0.13039-1.4989-0.40039-2.1289-0.26-0.63-0.67851-1.1711-1.2285-1.6211-0.55-0.45-1.2613-0.7893-2.1113-1.0293-0.85-0.23-1.8593-0.34961-3.0293-0.34961zm33.891 0v18.5h2.5098v-18.5zm7.2598 0v2.0996h6v16.4h2.5098v-16.4h5.9805v-2.0996zm16.66 0 6.7793 11.139v7.3613h2.4902v-7.3613l0.0195 0.0098 6.791-11.148h-2.2207c-0.21 0-0.38954 0.059453-0.51954 0.18945-0.14 0.12-0.24031 0.24867-0.32031 0.38867l-4.2188 7.1914c-0.18 0.29-0.32164 0.56984-0.43164 0.83984s-0.21859 0.52883-0.30859 0.79883c-0.1-0.26-0.20032-0.51906-0.32032-0.78906-0.11-0.26-0.25968-0.54961-0.42968-0.84961l-4.2402-7.1914c-0.1-0.16-0.20984-0.2982-0.33984-0.4082-0.13-0.11-0.31125-0.16992-0.53125-0.16992zm48.631 0v18.51h2.5195v-7.9609h7.5898v-2.0391h-7.5898v-6.4707h8.8887v-2.0391h-0.01zm-103.95 1.959h2.7402c1.44 0 2.52 0.27984 3.25 0.83984 0.73 0.56 1.0898 1.3902 1.0898 2.4902 0 0.55-0.0893 1.0402-0.2793 1.4902-0.19 0.45-0.47961 0.84016-0.84961 1.1602-0.38 0.32-0.84039 0.57-1.4004 0.75-0.55 0.18-1.1997 0.26953-1.9297 0.26953h-2.6211v-0.00977zm89.73 0.00977c1 0 1.899 0.16 2.709 0.5s1.5003 0.81945 2.0703 1.4395 1.0103 1.391 1.3203 2.291c0.3 0.9 0.46093 1.9205 0.46093 3.0605 0 1.14-0.15093 2.1586-0.46093 3.0586s-0.75032 1.671-1.3203 2.291c-0.57 0.62-1.2603 1.0997-2.0703 1.4297s-1.719 0.5-2.709 0.5-1.8892-0.17-2.6992-0.5-1.5003-0.79969-2.0703-1.4297c-0.56999-0.63-1.0103-1.391-1.3203-2.291s-0.4707-1.9186-0.4707-3.0586c0-1.14 0.1607-2.1605 0.4707-3.0605 0.31-0.9 0.75032-1.671 1.3203-2.291 0.57-0.62 1.2603-1.0995 2.0703-1.4395 0.81-0.33 1.6992-0.5 2.6992-0.5z" fill="#888b8d"/>
 </g>
</svg>
